<svg id="Capa_1" data-name="Capa 1" xmlns="http://www.w3.org/2000/svg" viewBox="0 0 837 304"><defs><style>.cls-1{fill:#60636a;}.cls-2{fill:#9f2241;}.cls-3{fill:#bc955c;}.cls-4{fill:#676766;stroke:#676766;stroke-miterlimit:10;stroke-width:3.02px;}</style></defs><path class="cls-1" d="M394.69,102.74c-14.06,0-24.14-10.47-24.14-23.42v-.13c0-13,10.21-23.56,24.27-23.56S419,66.11,419,79.06v.13C419,92.14,408.75,102.74,394.69,102.74Zm13.8-23.55c0-7.81-5.73-14.32-13.8-14.32S381,71.25,381,79.06v.13c0,7.81,5.73,14.31,13.8,14.31s13.67-6.37,13.67-14.18Z"/><path class="cls-1" d="M447.59,102.61a13.37,13.37,0,0,1-10.86-5.2V102h-9.9V54.46h9.9V72.09a12.79,12.79,0,0,1,10.86-5.66c8.14,0,15.88,6.38,15.88,18v.13C463.47,96.24,455.86,102.61,447.59,102.61Zm6-18.15c0-5.79-3.9-9.63-8.52-9.63s-8.46,3.84-8.46,9.63v.13c0,5.79,3.83,9.63,8.46,9.63s8.52-3.78,8.52-9.63Z"/><path class="cls-1" d="M483,102.61a24.4,24.4,0,0,1-15-5.27l4.23-6.5C476,93.57,480,95,483.25,95c2.87,0,4.17-1,4.17-2.6v-.13c0-2.15-3.39-2.87-7.23-4-4.88-1.43-10.41-3.71-10.41-10.48v-.13c0-7.09,5.73-11.06,12.76-11.06a24.11,24.11,0,0,1,13,4l-3.77,6.83c-3.45-2-6.9-3.25-9.44-3.25s-3.64,1-3.64,2.4v.13c0,2,3.32,2.87,7.09,4.17,4.88,1.63,10.54,4,10.54,10.35v.13C496.33,99.1,490.54,102.61,483,102.61Z"/><path class="cls-1" d="M535.83,88H511.56c1,4.49,4.1,6.84,8.52,6.84,3.32,0,5.73-1,8.46-3.58l5.67,5c-3.26,4-7.94,6.5-14.26,6.5-10.47,0-18.22-7.35-18.22-18v-.13c0-10,7.1-18.16,17.25-18.16,11.65,0,17,9,17,18.94v.13C536,86.48,535.9,87.06,535.83,88ZM519,74.37c-4.1,0-6.77,2.93-7.55,7.42h14.9C525.75,77.36,523.14,74.37,519,74.37Z"/><path class="cls-1" d="M563.81,76.78c-6.57,0-10.6,4-10.6,12.3V102h-9.9V67.08h9.9v7c2-4.82,5.27-7.94,11.12-7.68V76.78Z"/><path class="cls-1" d="M590.1,102.22h-9L567.39,67.08h10.48l7.81,23.36,7.87-23.36h10.28Z"/><path class="cls-1" d="M628.37,102V98.19a13.42,13.42,0,0,1-10.55,4.42c-6.57,0-12-3.77-12-10.67v-.13c0-7.61,5.79-11.13,14.06-11.13a24.91,24.91,0,0,1,8.52,1.43v-.58c0-4.1-2.54-6.38-7.48-6.38A25.62,25.62,0,0,0,611.32,77l-2.48-7.55a30.83,30.83,0,0,1,13.54-2.8c10.8,0,15.55,5.6,15.55,15V102Zm.19-14a15.33,15.33,0,0,0-6.31-1.3c-4.23,0-6.83,1.69-6.83,4.81v.13c0,2.67,2.21,4.23,5.4,4.23,4.62,0,7.74-2.54,7.74-6.12Z"/><path class="cls-1" d="M657.91,102.55c-6,0-10.15-2.41-10.15-10.48V75.54h-4.17V67.08h4.17V58.17h9.89v8.91h8.2v8.46h-8.2v14.9c0,2.28,1,3.39,3.19,3.39a10.07,10.07,0,0,0,4.88-1.24v7.94A14.55,14.55,0,0,1,657.91,102.55Z"/><path class="cls-1" d="M689.27,102.74c-10.8,0-18.8-8-18.8-18v-.13c0-10,8.07-18.16,18.93-18.16s18.81,8,18.81,18v.13C708.21,94.61,700.14,102.74,689.27,102.74Zm9.18-18.15c0-5.14-3.71-9.63-9.18-9.63-5.66,0-9,4.36-9,9.5v.13c0,5.14,3.71,9.63,9.17,9.63,5.67,0,9.05-4.36,9.05-9.5Z"/><path class="cls-1" d="M735.87,76.78c-6.58,0-10.61,4-10.61,12.3V102h-9.89V67.08h9.89v7c2-4.82,5.27-7.94,11.13-7.68V76.78Z"/><path class="cls-1" d="M742.76,63.24V54.46h10.41v8.78ZM743,102V67.08h9.89V102Z"/><path class="cls-1" d="M779.33,102.74c-10.8,0-18.8-8-18.8-18v-.13c0-10,8.06-18.16,18.93-18.16s18.81,8,18.81,18v.13C798.27,94.61,790.2,102.74,779.33,102.74Zm9.18-18.15c0-5.14-3.71-9.63-9.18-9.63-5.66,0-9,4.36-9,9.5v.13c0,5.14,3.71,9.63,9.17,9.63,5.66,0,9-4.36,9-9.5Z"/><path class="cls-1" d="M404.52,180.05l-22.07-29v29h-9.89V134.5h9.24l21.35,28.05V134.5H413v45.55Z"/><path class="cls-1" d="M443.36,180.05v-3.77a13.38,13.38,0,0,1-10.54,4.42c-6.57,0-12-3.77-12-10.67v-.13c0-7.61,5.79-11.13,14-11.13a24.92,24.92,0,0,1,8.53,1.43v-.58c0-4.1-2.54-6.38-7.48-6.38a25.71,25.71,0,0,0-9.64,1.89l-2.47-7.55a30.8,30.8,0,0,1,13.54-2.8c10.8,0,15.55,5.6,15.55,15v20.24Zm.2-14.05a15.2,15.2,0,0,0-6.31-1.31c-4.23,0-6.84,1.69-6.84,4.82v.13c0,2.67,2.22,4.23,5.4,4.23,4.63,0,7.75-2.54,7.75-6.12Z"/><path class="cls-1" d="M477.92,180.83a17.81,17.81,0,0,1-18.16-18v-.13a17.91,17.91,0,0,1,18.29-18.16c6.57,0,10.67,2.21,13.92,5.86l-6.05,6.5c-2.21-2.34-4.42-3.84-7.94-3.84-4.94,0-8.46,4.36-8.46,9.51v.13c0,5.33,3.45,9.63,8.85,9.63,3.32,0,5.6-1.43,8-3.71l5.79,5.86C488.79,178.16,484.88,180.83,477.92,180.83Z"/><path class="cls-1" d="M498.8,141.33v-8.79h10.42v8.79Zm.26,38.72V145.17H509v34.88Z"/><path class="cls-1" d="M535.38,180.83c-10.81,0-18.81-8-18.81-18v-.13c0-10,8.07-18.16,18.94-18.16s18.8,8,18.8,18v.13C554.31,172.7,546.24,180.83,535.38,180.83Zm9.17-18.15c0-5.15-3.71-9.64-9.17-9.64-5.67,0-9,4.36-9,9.51v.13c0,5.14,3.71,9.63,9.18,9.63,5.66,0,9-4.36,9-9.5Z"/><path class="cls-1" d="M583.53,180.05V160.59c0-4.68-2.21-7.09-6-7.09s-6.18,2.41-6.18,7.09v19.46h-9.89V145.17h9.89v5c2.28-2.93,5.21-5.6,10.22-5.6,7.48,0,11.84,4.94,11.84,12.95v22.58Z"/><path class="cls-1" d="M622.44,180.05v-3.77a13.41,13.41,0,0,1-10.54,4.42c-6.57,0-12-3.77-12-10.67v-.13c0-7.61,5.8-11.13,14.06-11.13a25,25,0,0,1,8.53,1.43v-.58c0-4.1-2.54-6.38-7.49-6.38a25.7,25.7,0,0,0-9.63,1.89l-2.47-7.55a30.8,30.8,0,0,1,13.54-2.8c10.8,0,15.55,5.6,15.55,15v20.24Zm.2-14.05a15.21,15.21,0,0,0-6.32-1.31c-4.23,0-6.83,1.69-6.83,4.82v.13c0,2.67,2.21,4.23,5.4,4.23,4.62,0,7.75-2.54,7.75-6.12Z"/><path class="cls-1" d="M641,180.05V132.54h9.89v47.51Z"/><path class="cls-1" d="M678.92,163.33v-.13c0-11,8-17.51,16.08-17.51,6.25,0,10.28,3.38,12.88,7.16V132.54h5v47.51h-5v-6.77c-2.73,4-6.7,7.49-12.88,7.49C686.93,180.77,678.92,174.39,678.92,163.33Zm29.16-.07v-.13c0-7.74-5.92-12.95-12.17-12.95-6.51,0-11.85,4.82-11.85,12.95v.13c0,7.94,5.47,13,11.85,13S708.08,171,708.08,163.26Z"/><path class="cls-1" d="M738.92,176.47a14,14,0,0,0,10.61-4.75l3.12,2.8a17.37,17.37,0,0,1-13.86,6.31c-9.24,0-16.79-7.09-16.79-17.57,0-9.76,6.83-17.57,16.14-17.57,10,0,15.68,7.94,15.68,17.83,0,.46,0,1-.06,1.76H727.08C727.79,172.37,733,176.47,738.92,176.47Zm9.83-15.23c-.59-6.11-4.1-11.32-10.74-11.32-5.79,0-10.22,4.82-10.93,11.32Z"/><path class="cls-1" d="M373.54,212.58h5.14v40.81h25.64v4.75H373.54Z"/><path class="cls-1" d="M427.16,254.56a13.94,13.94,0,0,0,10.61-4.75l3.12,2.8A17.37,17.37,0,0,1,427,258.92c-9.24,0-16.79-7.09-16.79-17.57,0-9.76,6.83-17.57,16.14-17.57,10,0,15.68,7.94,15.68,17.83,0,.46,0,1-.06,1.76H415.32C416,250.46,421.24,254.56,427.16,254.56ZM437,239.33c-.59-6.12-4.1-11.32-10.74-11.32-5.79,0-10.22,4.81-10.93,11.32Z"/><path class="cls-1" d="M448.05,253.84l2.53-3.58a19.65,19.65,0,0,0,11.65,4.3c4,0,7-2.08,7-5.34v-.13c0-3.38-4-4.68-8.4-5.92-5.27-1.5-11.13-3.32-11.13-9.5v-.13c0-5.79,4.82-9.63,11.46-9.63a23,23,0,0,1,12.1,3.71L471,231.39a19.06,19.06,0,0,0-9.95-3.25c-4,0-6.51,2.08-6.51,4.88v.13c0,3.19,4.16,4.43,8.65,5.79,5.21,1.56,10.81,3.58,10.81,9.63v.13c0,6.38-5.27,10.09-12,10.09A23.12,23.12,0,0,1,448.05,253.84Z"/><path class="cls-1" d="M483.38,211.61h5.73v5.53h-5.73Zm.33,12.88h5v33.65h-5Z"/><path class="cls-1" d="M498.28,241.48v-.13a17.54,17.54,0,0,1,35.08-.13v.13a17.47,17.47,0,0,1-17.64,17.57A17.24,17.24,0,0,1,498.28,241.48Zm29.94,0v-.13c0-7.22-5.4-13.15-12.5-13.15-7.29,0-12.3,5.93-12.3,13v.13c0,7.22,5.34,13.08,12.43,13.08C523.14,254.43,528.22,248.57,528.22,241.48Z"/><path class="cls-1" d="M542.4,224.49h5v5.86a12.75,12.75,0,0,1,11.52-6.57c8.14,0,12.89,5.47,12.89,13.47v20.89h-5V238.49c0-6.25-3.39-10.16-9.31-10.16s-10.09,4.23-10.09,10.55v19.26h-5Z"/><path class="cls-1" d="M597.32,254.56a13.92,13.92,0,0,0,10.61-4.75l3.13,2.8a17.4,17.4,0,0,1-13.87,6.31c-9.24,0-16.79-7.09-16.79-17.57,0-9.76,6.84-17.57,16.14-17.57,10,0,15.69,7.94,15.69,17.83,0,.46,0,1-.07,1.76H585.48C586.2,250.46,591.4,254.56,597.32,254.56Zm9.83-15.23c-.58-6.12-4.1-11.32-10.74-11.32-5.79,0-10.21,4.81-10.93,11.32Z"/><path class="cls-1" d="M618.21,253.84l2.54-3.58a19.62,19.62,0,0,0,11.65,4.3c4,0,7-2.08,7-5.34v-.13c0-3.38-4-4.68-8.39-5.92-5.27-1.5-11.13-3.32-11.13-9.5v-.13c0-5.79,4.81-9.63,11.45-9.63a23,23,0,0,1,12.11,3.71l-2.28,3.77a19.07,19.07,0,0,0-10-3.25c-4,0-6.51,2.08-6.51,4.88v.13c0,3.19,4.17,4.43,8.66,5.79,5.21,1.56,10.8,3.58,10.8,9.63v.13c0,6.38-5.27,10.09-12,10.09A23.15,23.15,0,0,1,618.21,253.84Z"/><path class="cls-2" d="M68.22,256.76A20,20,0,0,1,48,236.43v-.12a20.09,20.09,0,0,1,20.61-20.44c7.46,0,11.92,2.49,15.59,6.1l-5.54,6.38c-3-2.77-6.15-4.46-10.11-4.46-6.66,0-11.46,5.53-11.46,12.31v.11c0,6.78,4.69,12.43,11.46,12.43,4.52,0,7.29-1.81,10.4-4.63l5.53,5.59C80.36,254.05,75.85,256.76,68.22,256.76Z"/><path class="cls-2" d="M116.11,256.08V240.21h-16v15.87H91.38V216.55h8.69v15.64h16V216.55h8.7v39.53Z"/><path class="cls-2" d="M134.69,256.08V216.55h8.7v39.53Z"/><path class="cls-2" d="M182.69,256.08l-3.61-8.87H162.36l-3.61,8.87h-8.87l16.94-39.81h8l16.94,39.81Zm-12-29.37-5.25,12.82H176Z"/><path class="cls-2" d="M213.19,244.22h-6.61v11.86h-8.7V216.55H214c9.43,0,15.14,5.59,15.14,13.66v.12C229.17,239.48,222.05,244.22,213.19,244.22Zm7.17-13.84c0-3.89-2.71-6-7.06-6h-6.72v12.08h6.89c4.35,0,6.89-2.59,6.89-6Z"/><path class="cls-2" d="M261.08,256.08l-3.62-8.87H240.75l-3.62,8.87h-8.87l17-39.81h8l16.94,39.81Zm-12-29.37-5.25,12.82h10.5Z"/><path class="cls-2" d="M289.76,256.64A25.18,25.18,0,0,1,273,250.32l5.14-6.16c3.56,2.94,7.29,4.8,11.8,4.8,3.56,0,5.71-1.41,5.71-3.72v-.12c0-2.2-1.36-3.33-8-5-8-2-13.1-4.24-13.1-12.09v-.11c0-7.17,5.76-11.92,13.84-11.92a22.87,22.87,0,0,1,14.68,5l-4.52,6.55c-3.5-2.43-6.94-3.9-10.28-3.9s-5.08,1.53-5.08,3.45v.11c0,2.6,1.7,3.45,8.53,5.2,8,2.09,12.54,5,12.54,11.86v.11C304.28,252.24,298.29,256.64,289.76,256.64Z"/><path class="cls-3" d="M305.24,108.21a6.34,6.34,0,0,0-9,0L255,149.48a115.62,115.62,0,0,1-158.72,4.33l9-9A102.86,102.86,0,0,0,246,140.5L287.3,99.23a6.34,6.34,0,1,0-9-9l-41.27,41.27a90.19,90.19,0,0,1-122.78,4.28l9-9a77.49,77.49,0,0,0,104.82-4.26l41.26-41.27a6.38,6.38,0,0,0,0-9,128.28,128.28,0,0,0-181.23,0L46.82,113.56a6.34,6.34,0,0,0,9,9L97.06,81.25a115.62,115.62,0,0,1,158.72-4.33l-9,9A102.86,102.86,0,0,0,106,90.23L64.76,131.5a6.34,6.34,0,1,0,9,9L115,99.2a90.17,90.17,0,0,1,122.78-4.28l-9,9A77.38,77.38,0,0,0,124,108.17L82.7,149.44a6.39,6.39,0,0,0,0,9,128.28,128.28,0,0,0,181.23,0l41.27-41.27A6.34,6.34,0,0,0,305.24,108.21Zm-126.53-10a64.23,64.23,0,0,1,41.09,14.72l-.69.68a64.79,64.79,0,0,1-86.84,4.23l.68-.68A64.29,64.29,0,0,1,178.71,98.19Z"/><line class="cls-4" x1="338.62" y1="37.82" x2="338.62" y2="261.16"/></svg>