<?xml version="1.0" encoding="UTF-8"?>
<svg id="Capa_1" data-name="Capa 1" xmlns="http://www.w3.org/2000/svg" viewBox="0 0 837 304">
  <defs>
    <style>
      .cls-1 {
        fill: #9f2241;
      }

      .cls-2 {
        fill: #bc955c;
      }

      .cls-3 {
        fill: #60636a;
      }

      .cls-4 {
        fill: #676766;
        stroke: #676766;
        stroke-miterlimit: 10;
        stroke-width: 3.02px;
      }
    </style>
  </defs>
  <g>
    <path class="cls-3" d="M394.65,102.61c-14.06,0-24.14-10.48-24.14-23.43v-.13c0-12.95,10.22-23.56,24.27-23.56s24.14,10.48,24.14,23.43v.13c0,12.95-10.22,23.56-24.27,23.56Zm13.8-23.56c0-7.81-5.73-14.32-13.8-14.32s-13.67,6.38-13.67,14.19v.13c0,7.81,5.73,14.32,13.8,14.32s13.67-6.38,13.67-14.19v-.13Z"/>
    <path class="cls-3" d="M447.55,102.48c-5.27,0-8.53-2.41-10.87-5.21v4.56h-9.89V54.32h9.89v17.64c2.41-3.25,5.73-5.66,10.87-5.66,8.13,0,15.88,6.38,15.88,18.03v.13c0,11.65-7.61,18.03-15.88,18.03Zm5.99-18.16c0-5.79-3.91-9.63-8.53-9.63s-8.46,3.84-8.46,9.63v.13c0,5.79,3.84,9.63,8.46,9.63s8.53-3.77,8.53-9.63v-.13Z"/>
    <path class="cls-3" d="M482.95,102.48c-4.88,0-10.35-1.63-14.97-5.27l4.23-6.51c3.77,2.73,7.75,4.17,11,4.17,2.86,0,4.17-1.04,4.17-2.6v-.13c0-2.15-3.38-2.86-7.22-4.03-4.88-1.43-10.41-3.71-10.41-10.48v-.13c0-7.09,5.73-11.06,12.76-11.06,4.42,0,9.24,1.5,13.02,4.03l-3.78,6.83c-3.45-2.02-6.9-3.25-9.44-3.25s-3.64,1.04-3.64,2.41v.13c0,1.95,3.32,2.86,7.09,4.17,4.88,1.63,10.54,3.97,10.54,10.35v.13c0,7.74-5.79,11.26-13.34,11.26Z"/>
    <path class="cls-3" d="M535.79,87.84h-24.27c.98,4.49,4.1,6.83,8.53,6.83,3.32,0,5.73-1.04,8.46-3.58l5.66,5.01c-3.25,4.04-7.94,6.51-14.25,6.51-10.48,0-18.22-7.35-18.22-18.03v-.13c0-9.96,7.09-18.16,17.25-18.16,11.65,0,16.99,9.05,16.99,18.94v.13c0,.98-.07,1.56-.13,2.47Zm-16.86-13.6c-4.1,0-6.77,2.93-7.55,7.42h14.9c-.59-4.43-3.19-7.42-7.35-7.42Z"/>
    <path class="cls-3" d="M563.78,76.64c-6.57,0-10.61,3.97-10.61,12.3v12.89h-9.89v-34.88h9.89v7.03c2.02-4.82,5.27-7.94,11.13-7.68v10.35h-.52Z"/>
    <path class="cls-3" d="M590.07,102.09h-8.98l-13.73-35.14h10.48l7.81,23.36,7.87-23.36h10.28l-13.73,35.14Z"/>
    <path class="cls-3" d="M628.33,101.83v-3.77c-2.41,2.67-5.73,4.43-10.54,4.43-6.57,0-11.97-3.77-11.97-10.67v-.13c0-7.61,5.79-11.13,14.06-11.13,3.51,0,6.05,.59,8.53,1.43v-.59c0-4.1-2.54-6.38-7.48-6.38-3.77,0-6.44,.72-9.63,1.89l-2.47-7.55c3.84-1.69,7.61-2.8,13.54-2.8,10.8,0,15.55,5.6,15.55,15.03v20.24h-9.57Zm.2-14.06c-1.69-.78-3.91-1.3-6.31-1.3-4.23,0-6.83,1.69-6.83,4.82v.13c0,2.67,2.21,4.23,5.4,4.23,4.62,0,7.75-2.54,7.75-6.12v-1.76Z"/>
    <path class="cls-3" d="M657.88,102.41c-6.05,0-10.15-2.41-10.15-10.48v-16.53h-4.17v-8.46h4.17v-8.92h9.89v8.92h8.2v8.46h-8.2v14.9c0,2.28,.98,3.38,3.19,3.38,1.82,0,3.45-.46,4.88-1.24v7.94c-2.08,1.24-4.49,2.02-7.81,2.02Z"/>
    <path class="cls-3" d="M689.24,102.61c-10.8,0-18.81-8-18.81-18.03v-.13c0-10.02,8.07-18.16,18.94-18.16s18.81,8,18.81,18.03v.13c0,10.02-8.07,18.16-18.94,18.16Zm9.18-18.16c0-5.14-3.71-9.63-9.18-9.63s-9.05,4.36-9.05,9.5v.13c0,5.14,3.71,9.63,9.18,9.63s9.05-4.36,9.05-9.5v-.13Z"/>
    <path class="cls-3" d="M735.83,76.64c-6.57,0-10.61,3.97-10.61,12.3v12.89h-9.89v-34.88h9.89v7.03c2.02-4.82,5.27-7.94,11.13-7.68v10.35h-.52Z"/>
    <path class="cls-3" d="M742.73,63.11v-8.79h10.41v8.79h-10.41Zm.26,38.72v-34.88h9.89v34.88h-9.89Z"/>
    <path class="cls-3" d="M779.3,102.61c-10.8,0-18.81-8-18.81-18.03v-.13c0-10.02,8.07-18.16,18.94-18.16s18.81,8,18.81,18.03v.13c0,10.02-8.07,18.16-18.94,18.16Zm9.18-18.16c0-5.14-3.71-9.63-9.18-9.63s-9.05,4.36-9.05,9.5v.13c0,5.14,3.71,9.63,9.18,9.63s9.05-4.36,9.05-9.5v-.13Z"/>
    <path class="cls-3" d="M372.52,179.92v-45.56h34.36v8.92h-24.4v9.24h21.48v8.92h-21.48v9.57h24.73v8.92h-34.69Z"/>
    <path class="cls-3" d="M427.31,180.57c-4.88,0-10.35-1.63-14.97-5.27l4.23-6.51c3.77,2.73,7.74,4.17,11,4.17,2.86,0,4.17-1.04,4.17-2.6v-.13c0-2.15-3.38-2.86-7.22-4.04-4.88-1.43-10.41-3.71-10.41-10.48v-.13c0-7.09,5.73-11.06,12.76-11.06,4.42,0,9.24,1.5,13.02,4.03l-3.78,6.83c-3.45-2.02-6.9-3.25-9.44-3.25s-3.64,1.04-3.64,2.41v.13c0,1.95,3.32,2.86,7.09,4.17,4.88,1.63,10.54,3.97,10.54,10.35v.13c0,7.74-5.79,11.26-13.34,11.26Z"/>
    <path class="cls-3" d="M458.88,180.5c-6.05,0-10.15-2.41-10.15-10.48v-16.53h-4.17v-8.46h4.17v-8.92h9.89v8.92h8.2v8.46h-8.2v14.9c0,2.28,.98,3.38,3.19,3.38,1.82,0,3.45-.46,4.88-1.24v7.94c-2.08,1.24-4.49,2.02-7.81,2.02Z"/>
    <path class="cls-3" d="M494.54,179.92v-3.77c-2.41,2.67-5.73,4.42-10.54,4.42-6.57,0-11.97-3.77-11.97-10.67v-.13c0-7.61,5.79-11.13,14.06-11.13,3.51,0,6.05,.58,8.53,1.43v-.59c0-4.1-2.54-6.38-7.48-6.38-3.77,0-6.44,.72-9.63,1.89l-2.47-7.55c3.84-1.69,7.61-2.8,13.54-2.8,10.8,0,15.55,5.6,15.55,15.03v20.24h-9.57Zm.2-14.06c-1.69-.78-3.91-1.3-6.31-1.3-4.23,0-6.83,1.69-6.83,4.82v.13c0,2.67,2.21,4.23,5.4,4.23,4.62,0,7.75-2.54,7.75-6.12v-1.76Z"/>
    <path class="cls-3" d="M524.08,180.5c-6.05,0-10.15-2.41-10.15-10.48v-16.53h-4.17v-8.46h4.17v-8.92h9.89v8.92h8.2v8.46h-8.2v14.9c0,2.28,.98,3.38,3.19,3.38,1.82,0,3.45-.46,4.88-1.24v7.94c-2.08,1.24-4.49,2.02-7.81,2.02Z"/>
    <path class="cls-3" d="M559.74,179.92v-3.77c-2.41,2.67-5.73,4.42-10.54,4.42-6.57,0-11.97-3.77-11.97-10.67v-.13c0-7.61,5.79-11.13,14.06-11.13,3.51,0,6.05,.58,8.53,1.43v-.59c0-4.1-2.54-6.38-7.48-6.38-3.77,0-6.44,.72-9.63,1.89l-2.47-7.55c3.84-1.69,7.61-2.8,13.54-2.8,10.8,0,15.55,5.6,15.55,15.03v20.24h-9.57Zm.2-14.06c-1.69-.78-3.91-1.3-6.31-1.3-4.23,0-6.83,1.69-6.83,4.82v.13c0,2.67,2.21,4.23,5.4,4.23,4.62,0,7.75-2.54,7.75-6.12v-1.76Z"/>
    <path class="cls-3" d="M578.29,179.92v-47.51h9.89v47.51h-9.89Z"/>
    <path class="cls-3" d="M616.23,163.19v-.13c0-11,8-17.51,16.07-17.51,6.25,0,10.28,3.38,12.89,7.16v-20.3h5.01v47.51h-5.01v-6.77c-2.73,4.04-6.7,7.48-12.89,7.48-8.07,0-16.07-6.38-16.07-17.44Zm29.16-.06v-.13c0-7.74-5.92-12.95-12.17-12.95s-11.84,4.82-11.84,12.95v.13c0,7.94,5.47,13.02,11.84,13.02s12.17-5.27,12.17-13.02Z"/>
    <path class="cls-3" d="M676.22,176.34c4.62,0,7.88-1.89,10.61-4.75l3.12,2.8c-3.38,3.77-7.48,6.31-13.86,6.31-9.24,0-16.79-7.09-16.79-17.57,0-9.76,6.83-17.57,16.14-17.57,9.96,0,15.68,7.94,15.68,17.83,0,.46,0,.98-.07,1.76h-26.68c.72,7.09,5.92,11.19,11.84,11.19Zm9.83-15.23c-.59-6.12-4.1-11.32-10.74-11.32-5.79,0-10.22,4.82-10.93,11.32h21.67Z"/>
    <path class="cls-3" d="M373.5,212.46h5.14v40.8h25.64v4.75h-30.78v-45.55Z"/>
    <path class="cls-3" d="M427.12,254.43c4.62,0,7.87-1.89,10.61-4.75l3.12,2.8c-3.38,3.77-7.48,6.31-13.86,6.31-9.24,0-16.79-7.09-16.79-17.57,0-9.76,6.83-17.57,16.14-17.57,9.96,0,15.68,7.94,15.68,17.83,0,.46,0,.98-.06,1.76h-26.68c.72,7.09,5.92,11.19,11.84,11.19Zm9.83-15.23c-.58-6.12-4.1-11.32-10.74-11.32-5.79,0-10.22,4.82-10.93,11.32h21.67Z"/>
    <path class="cls-3" d="M448.01,253.71l2.54-3.58c3.64,2.73,7.68,4.3,11.65,4.3s6.96-2.08,6.96-5.34v-.13c0-3.38-3.97-4.69-8.4-5.92-5.27-1.5-11.13-3.32-11.13-9.5v-.13c0-5.79,4.82-9.63,11.45-9.63,4.1,0,8.66,1.43,12.1,3.71l-2.28,3.77c-3.12-2.02-6.7-3.25-9.96-3.25-3.97,0-6.51,2.08-6.51,4.88v.13c0,3.19,4.17,4.43,8.66,5.79,5.21,1.56,10.8,3.58,10.8,9.63v.13c0,6.38-5.27,10.09-11.97,10.09-4.82,0-10.15-1.89-13.93-4.95Z"/>
    <path class="cls-3" d="M483.34,211.48h5.73v5.53h-5.73v-5.53Zm.33,12.89h5.01v33.65h-5.01v-33.65Z"/>
    <path class="cls-3" d="M498.24,241.35v-.13c0-9.5,7.42-17.57,17.57-17.57s17.51,7.94,17.51,17.44v.13c0,9.5-7.48,17.57-17.64,17.57s-17.44-7.94-17.44-17.44Zm29.94,0v-.13c0-7.22-5.4-13.15-12.5-13.15s-12.3,5.92-12.3,13.02v.13c0,7.22,5.34,13.08,12.43,13.08s12.36-5.86,12.36-12.95Z"/>
    <path class="cls-3" d="M542.36,224.36h5.01v5.86c2.21-3.64,5.73-6.57,11.52-6.57,8.13,0,12.89,5.47,12.89,13.47v20.89h-5.01v-19.65c0-6.25-3.38-10.15-9.31-10.15s-10.09,4.23-10.09,10.54v19.26h-5.01v-33.65Z"/>
    <path class="cls-3" d="M597.29,254.43c4.62,0,7.88-1.89,10.61-4.75l3.12,2.8c-3.38,3.77-7.48,6.31-13.86,6.31-9.24,0-16.79-7.09-16.79-17.57,0-9.76,6.83-17.57,16.14-17.57,9.96,0,15.68,7.94,15.68,17.83,0,.46,0,.98-.07,1.76h-26.68c.72,7.09,5.92,11.19,11.84,11.19Zm9.83-15.23c-.59-6.12-4.1-11.32-10.74-11.32-5.79,0-10.22,4.82-10.93,11.32h21.67Z"/>
    <path class="cls-3" d="M618.18,253.71l2.54-3.58c3.64,2.73,7.68,4.3,11.65,4.3s6.96-2.08,6.96-5.34v-.13c0-3.38-3.97-4.69-8.4-5.92-5.27-1.5-11.13-3.32-11.13-9.5v-.13c0-5.79,4.82-9.63,11.45-9.63,4.1,0,8.66,1.43,12.1,3.71l-2.28,3.77c-3.12-2.02-6.7-3.25-9.96-3.25-3.97,0-6.51,2.08-6.51,4.88v.13c0,3.19,4.17,4.43,8.66,5.79,5.21,1.56,10.8,3.58,10.8,9.63v.13c0,6.38-5.27,10.09-11.97,10.09-4.82,0-10.15-1.89-13.93-4.95Z"/>
  </g>
  <g>
    <path class="cls-1" d="M68.22,256.76c-11.63,0-20.27-8.98-20.27-20.33v-.11c0-11.24,8.47-20.44,20.61-20.44,7.45,0,11.92,2.49,15.59,6.1l-5.53,6.38c-3.05-2.77-6.16-4.46-10.11-4.46-6.66,0-11.46,5.53-11.46,12.31v.11c0,6.78,4.69,12.42,11.46,12.42,4.52,0,7.28-1.81,10.39-4.63l5.53,5.59c-4.07,4.35-8.58,7.06-16.21,7.06Z"/>
    <path class="cls-1" d="M116.11,256.08v-15.87h-16.04v15.87h-8.7v-39.53h8.7v15.64h16.04v-15.64h8.7v39.53h-8.7Z"/>
    <path class="cls-1" d="M134.69,256.08v-39.53h8.7v39.53h-8.7Z"/>
    <path class="cls-1" d="M182.69,256.08l-3.61-8.87h-16.72l-3.61,8.87h-8.87l16.94-39.81h8.02l16.94,39.81h-9.09Zm-11.97-29.37l-5.25,12.82h10.5l-5.25-12.82Z"/>
    <path class="cls-1" d="M213.19,244.22h-6.61v11.86h-8.7v-39.53h16.15c9.43,0,15.13,5.59,15.13,13.67v.11c0,9.15-7.12,13.89-15.98,13.89Zm7.17-13.84c0-3.9-2.71-5.99-7.06-5.99h-6.72v12.09h6.89c4.35,0,6.89-2.6,6.89-5.99v-.11Z"/>
    <path class="cls-1" d="M261.08,256.08l-3.61-8.87h-16.72l-3.61,8.87h-8.87l16.94-39.81h8.02l16.94,39.81h-9.09Zm-11.97-29.37l-5.25,12.82h10.5l-5.25-12.82Z"/>
    <path class="cls-1" d="M289.76,256.64c-5.99,0-12.03-2.09-16.77-6.32l5.14-6.16c3.56,2.94,7.29,4.8,11.8,4.8,3.56,0,5.7-1.41,5.7-3.73v-.11c0-2.2-1.36-3.33-7.96-5.03-7.96-2.03-13.1-4.24-13.1-12.09v-.11c0-7.17,5.76-11.92,13.84-11.92,5.76,0,10.67,1.81,14.68,5.03l-4.52,6.55c-3.5-2.43-6.95-3.9-10.28-3.9s-5.08,1.52-5.08,3.44v.11c0,2.6,1.69,3.44,8.53,5.2,8.02,2.09,12.54,4.97,12.54,11.86v.11c0,7.85-5.99,12.25-14.51,12.25Z"/>
  </g>
  <path class="cls-2" d="M305.24,108.21c-2.48-2.48-6.49-2.48-8.97,0l-41.27,41.27c-21.77,21.77-50.76,33.77-81.64,33.77-28.75,0-55.87-10.4-77.07-29.44l9-9c19.38,17.16,43.72,25.76,68.07,25.76,26.32,0,52.64-10.02,72.68-30.06l41.27-41.27c2.48-2.48,2.48-6.49,0-8.97-2.48-2.48-6.49-2.48-8.97,0l-41.27,41.27c-33.63,33.63-87.43,35.04-122.78,4.28l9-8.99c14.39,12.24,32.23,18.37,50.08,18.37,19.82,0,39.64-7.54,54.73-22.63l41.27-41.27c2.48-2.48,2.45-6.53-.03-9.01-24.17-24.17-56.35-37.48-90.62-37.48s-66.45,13.31-90.62,37.48l-41.27,41.27c-2.48,2.48-2.48,6.49,0,8.97,2.47,2.48,6.49,2.48,8.97,0l41.27-41.27c21.77-21.77,50.77-33.76,81.65-33.76,28.75,0,55.87,10.4,77.07,29.43l-9,9c-18.78-16.64-42.71-25.76-68.07-25.76-27.49,0-53.3,10.67-72.67,30.06l-41.28,41.27c-2.48,2.47-2.48,6.49,0,8.97,1.24,1.24,2.86,1.86,4.49,1.86s3.25-.62,4.49-1.86l41.28-41.27c16.98-16.99,39.61-26.34,63.7-26.34,21.97,0,42.71,7.8,59.08,22.06l-9,9c-13.97-11.9-31.52-18.41-50.08-18.41-20.68,0-40.11,8.05-54.73,22.67l-41.27,41.27c-1.19,1.19-1.84,2.82-1.84,4.5s.69,3.32,1.88,4.51c24.17,24.17,56.35,37.48,90.62,37.48s66.45-13.31,90.61-37.48l41.27-41.27c2.48-2.47,2.48-6.49,0-8.97Zm-126.53-10.02c15.17,0,29.54,5.19,41.09,14.72l-.68,.68c-23.73,23.73-61.45,25.13-86.84,4.23l.68-.68c12.22-12.22,28.47-18.95,45.76-18.95Z"/>
  <line class="cls-4" x1="338.62" y1="37.82" x2="338.62" y2="261.16"/>
</svg>